# xmcd
#
# Track frame offsets:
#	150
#	14151
#	30281
#	46015
#	62219
#	74225
#	88325
#	98633
#	115412
#	129057
#	145073
#	164718
#	181247
#	198611
#	211629
#	225580
#	241470
#	257512
#	277391
#	294278
#
# Disc length: 4127 seconds
#
# Revision: 1
# Processed by: cddbd v1.5.2PL0 Copyright (c) Steve Scherf et al.
# Submitted via: audiograbber 1.83.01
#
DISCID=29101d14
DTITLE=Muziekfeest op het plein - Muziekfeest op het plein Deel 5 CD1
DYEAR=2010
DGENRE=Vocal
TTITLE0=Dana Winner - De Vlinders Achterna
TTITLE1=Jeroen van der Boom - Betekenis
TTITLE2=Frans Bauer and Marianne Weber - Eens Schijnt Weer De Zon
TTITLE3=Piet Veerman and Annie Schilder - When You Walk In The Boom
TTITLE4=Diango Wagner - De Muzikant
TTITLE5=Dennie Christian - Jij Bent Sowieso Mijn Type
TTITLE6=Snappie - Snappie De Kleine Krokodil
TTITLE7=Hit! - Want Ik heb Wat Ik Wou
TTITLE8=Djumbo - Abracadaba
TTITLE9=Jim - Doe Dit, Doe Dat
TTITLE10=Gordon - Blijf Je Vannacht Bij Mij
TTITLE11=Frank van Etten - Leef Als Een Zigeuner
TTITLE12=Maarten - Het Leven Is Goed Op De Zee
TTITLE13=Patrick! - Geen Geheimen
TTITLE14=Silvia Swart - Droom Van Werkelijkheid
TTITLE15=John de Bever - Mensen Kijken En Wijzen
TTITLE16=Danny de Munk and Dave - Laat Ons Niet Alleen
TTITLE17=Quincy - Morgen Weer Een Dag
TTITLE18=René Karst - Ik Wil Zo Graag Weer 20 Zijn
TTITLE19=Grand Damen - He Jij, Waar Was Je Nou?
EXTD=
EXTT0=
EXTT1=
EXTT2=
EXTT3=
EXTT4=
EXTT5=
EXTT6=
EXTT7=
EXTT8=
EXTT9=
EXTT10=
EXTT11=
EXTT12=
EXTT13=
EXTT14=
EXTT15=
EXTT16=
EXTT17=
EXTT18=
EXTT19=
PLAYORDER=
